<svg version="1.1"
	xmlns="http://www.w3.org/2000/svg"
	xmlns:xlink="http://www.w3.org/1999/xlink"
  x="0px"
  y="0px"
	width="113px"
  height="40px"
  viewBox="0 0 265.823 86.89"
  xml:space="preserve"
>
	<g>
		<g>
			<path d="M0,86.89V39.7h7.61v4.768c1.263-1.813,2.903-3.223,4.921-4.232c2.018-1.008,4.218-1.512,6.602-1.512
				c3.014,0,5.699,0.723,8.053,2.168c2.354,1.447,4.211,3.42,5.579,5.916c1.364,2.496,2.048,5.343,2.048,8.541
				c0,3.158-0.679,5.99-2.033,8.496c-1.357,2.508-3.198,4.488-5.531,5.945c-2.334,1.457-4.979,2.186-7.933,2.186
				c-2.364,0-4.563-0.524-6.601-1.574c-2.039-1.049-3.741-2.521-5.104-4.416V86.89H0z M17.146,65.466
				c1.875,0,3.539-0.433,4.996-1.299c1.458-0.867,2.604-2.059,3.439-3.576c0.834-1.518,1.253-3.256,1.253-5.211
				c0-1.956-0.423-3.703-1.27-5.242c-0.845-1.538-1.989-2.739-3.437-3.605c-1.447-0.867-3.107-1.299-4.982-1.299
				s-3.545,0.432-5.014,1.299c-1.465,0.866-2.623,2.063-3.468,3.59c-0.845,1.529-1.268,3.271-1.268,5.227
				c0,1.957,0.416,3.699,1.252,5.226c0.835,1.528,1.994,2.726,3.469,3.593C13.593,65.033,15.271,65.466,17.146,65.466z"/>
			<path d="M57.425,71.976c-2.892,0-5.515-0.719-7.867-2.154c-2.354-1.438-4.219-3.408-5.594-5.915
				c-1.375-2.505-2.063-5.368-2.063-8.589c0-3.178,0.666-6.014,2.001-8.51s3.173-4.469,5.517-5.916
				c2.344-1.445,5.013-2.168,8.006-2.168c2.446,0,4.698,0.51,6.755,1.528c2.059,1.019,3.688,2.435,4.892,4.247V39.7h7.609v31.297
				h-7.609v-5.012c-1.386,1.895-3.082,3.367-5.089,4.416C61.975,71.451,59.791,71.976,57.425,71.976z M59.597,65.466
				c1.895,0,3.564-0.433,5.012-1.299c1.447-0.867,2.588-2.064,3.424-3.593c0.836-1.526,1.252-3.269,1.252-5.226
				c0-1.976-0.416-3.723-1.252-5.24s-1.977-2.71-3.424-3.576c-1.447-0.867-3.117-1.299-5.012-1.299c-1.875,0-3.546,0.432-5.012,1.299
				c-1.469,0.866-2.619,2.063-3.454,3.59c-0.836,1.529-1.252,3.271-1.252,5.227c0,1.957,0.416,3.699,1.252,5.226
				c0.835,1.528,1.985,2.726,3.454,3.593C56.051,65.033,57.722,65.466,59.597,65.466z"/>
			<path d="M88.326,86.89l9.229-18.675L82.703,39.7h8.68l10.604,21.09l9.384-21.09h8.679L97.003,86.89H88.326z"/>
			<path d="M133.373,71.976c-2.626,0-4.965-0.496-7.013-1.483s-3.714-2.409-4.998-4.263l3.362-4.951
				c1.203,1.59,2.542,2.821,4.02,3.697c1.479,0.877,3.01,1.314,4.6,1.314c0.978,0,1.844-0.177,2.598-0.535
				c0.753-0.356,1.355-0.875,1.803-1.558c0.448-0.684,0.672-1.492,0.672-2.431c0-0.977-0.253-1.742-0.763-2.292
				c-0.511-0.55-1.273-1.05-2.292-1.497s-2.303-0.978-3.852-1.589c-1.304-0.55-2.547-1.161-3.729-1.834
				c-1.181-0.673-2.152-1.523-2.917-2.553c-0.766-1.028-1.146-2.337-1.146-3.927c0-1.813,0.503-3.422,1.513-4.83
				c1.009-1.405,2.393-2.505,4.156-3.299c1.762-0.796,3.773-1.192,6.034-1.192c1.632,0,3.271,0.29,4.922,0.87
				s3.302,1.422,4.951,2.521l-2.749,4.799c-2.385-1.977-4.74-2.965-7.063-2.965c-1.363,0-2.46,0.326-3.285,0.979
				c-0.824,0.652-1.236,1.487-1.236,2.506c0,0.836,0.355,1.549,1.068,2.14c0.715,0.592,1.602,1.11,2.659,1.558
				c1.058,0.449,2.118,0.877,3.179,1.284c1.671,0.611,3.138,1.265,4.402,1.956c1.262,0.693,2.25,1.59,2.963,2.689
				c0.713,1.102,1.07,2.568,1.07,4.4c0,2.201-0.524,4.086-1.573,5.654c-1.052,1.57-2.544,2.766-4.479,3.591
				C138.314,71.563,136.021,71.976,133.373,71.976z"/>
			<path d="M159.474,33.282c-0.835,0-1.605-0.208-2.308-0.626c-0.702-0.417-1.263-0.979-1.683-1.681
				c-0.416-0.703-0.625-1.482-0.625-2.338c0-0.836,0.209-1.6,0.625-2.293c0.42-0.692,0.98-1.248,1.683-1.666s1.473-0.625,2.308-0.625
				c0.854,0,1.625,0.207,2.307,0.625s1.232,0.974,1.652,1.666c0.416,0.693,0.625,1.457,0.625,2.293c0,0.855-0.209,1.635-0.625,2.338
				c-0.42,0.702-0.971,1.264-1.652,1.681C161.099,33.074,160.329,33.282,159.474,33.282z M155.654,70.997V39.7h7.609v31.297H155.654z
				"/>
			<path d="M194.406,71.976c-2.383,0-4.589-0.529-6.617-1.59c-2.027-1.059-3.725-2.525-5.088-4.4v5.012h-7.609V18.43h7.609v26.069
				c1.262-1.813,2.897-3.229,4.905-4.247c2.006-1.019,4.222-1.528,6.646-1.528c2.996,0,5.677,0.723,8.039,2.168
				c2.364,1.447,4.222,3.42,5.578,5.916c1.355,2.496,2.033,5.343,2.033,8.541c0,3.22-0.694,6.083-2.08,8.588
				c-1.386,2.506-3.245,4.474-5.576,5.899C199.912,71.261,197.298,71.976,194.406,71.976z M192.237,65.466
				c1.894,0,3.57-0.433,5.026-1.299c1.457-0.867,2.598-2.059,3.425-3.576c0.824-1.518,1.237-3.256,1.237-5.211
				c0-1.956-0.424-3.703-1.271-5.242c-0.845-1.538-1.989-2.739-3.437-3.605c-1.447-0.867-3.107-1.299-4.981-1.299
				c-1.876,0-3.553,0.432-5.028,1.299c-1.477,0.866-2.634,2.067-3.47,3.605c-0.836,1.539-1.252,3.286-1.252,5.242
				c0,1.955,0.413,3.693,1.237,5.211c0.825,1.518,1.976,2.709,3.455,3.576C188.656,65.033,190.341,65.466,192.237,65.466z"/>
			<path d="M217.492,70.997V18.43h7.612v52.567H217.492z"/>
			<path d="M249.961,71.976c-3.343,0-6.331-0.724-8.971-2.17c-2.639-1.447-4.727-3.423-6.264-5.93
				c-1.539-2.506-2.309-5.328-2.309-8.466c0-2.323,0.438-4.493,1.313-6.511c0.876-2.016,2.09-3.789,3.638-5.317
				c1.549-1.528,3.352-2.719,5.41-3.576c2.057-0.855,4.278-1.282,6.662-1.282c3.26,0,6.118,0.672,8.572,2.017
				c2.456,1.344,4.37,3.22,5.745,5.624c1.376,2.404,2.063,5.205,2.063,8.404c0,0.266-0.009,0.484-0.03,0.656
				c-0.021,0.174-0.062,0.465-0.123,0.871h-25.487c0,1.896,0.427,3.561,1.283,4.998c0.855,1.437,2.053,2.557,3.59,3.361
				c1.538,0.805,3.307,1.207,5.304,1.207c1.896,0,3.582-0.383,5.058-1.146c1.477-0.765,2.816-1.931,4.02-3.501l5.531,2.844
				c-1.486,2.486-3.549,4.427-6.189,5.821C256.14,71.277,253.201,71.976,249.961,71.976z M240.519,51.528h17.756
				c-0.265-1.426-0.805-2.659-1.621-3.697c-0.813-1.04-1.843-1.849-3.086-2.43c-1.244-0.58-2.628-0.871-4.156-0.871
				c-1.61,0-3.047,0.285-4.309,0.855c-1.265,0.571-2.294,1.375-3.088,2.414S240.721,50.083,240.519,51.528z"/>
		</g>
		<g>
			<path fill="#22C55E" d="M101.689,71.763c-1.566,0-3.008-0.992-3.754-2.372L81.318,38.577c-1.121-2.074-0.349-4.697,1.726-5.818
				s4.663-0.364,5.784,1.709l12.742,23.568l28.25-55.695c1.066-2.103,3.633-2.945,5.738-1.879c2.102,1.066,2.941,3.635,1.875,5.737
				l-31.937,63.094c-0.719,1.416-2.163,2.47-3.751,2.47C101.726,71.763,101.708,71.763,101.689,71.763z"/>
		</g>
	</g>
</svg>