<svg
  xmlns="http://www.w3.org/2000/svg"
  version="1.1"
  xmlns:xlink="http://www.w3.org/1999/xlink"
  xmlns:svgjs="http://svgjs.dev/svgjs"
  x="0"
  y="0"
  width="342.603px"
  height="521.417px"
  viewBox="0 0 342.603 521.417"
>
  <g>
    <path id="letter-y" d="M45.14,521.417l55.379-112.064L11.396,238.24h52.085l63.631,126.557l56.311-126.557h52.08L97.214,521.417H45.14z" />
    <g>
      <path id="tick" d="M125.331,430.291c-9.4,0-18.05-5.778-22.527-14.059L3.087,231.413
      c-6.729-12.447-2.093-28.144,10.354-34.872s27.982-2.164,34.71,10.277l76.465,141.441L294.14,14.045
      c6.4-12.617,21.801-17.672,34.436-11.272c12.611,6.399,17.65,21.813,11.252,34.43L148.18,415.646
      c-4.313,8.496-12.98,14.645-22.509,14.645C125.554,430.291,125.448,430.291,125.331,430.291z"/>
    </g>
  </g>
  <style>
    #letter-y {
      fill: #ffffff;
      @media (prefers-color-scheme: light) { fill: #000000; }
    }
    #tick { fill: #22C55E; }
  </style>
</svg>
